<svg
   height="180px"
   width="220px"
   xmlns="http://www.w3.org/2000/svg">
  <rect
     width="100%"
     height="100%"
     fill="#f2e5bd"
     id="rect1"
     x="0"
     y="0"
     style="stroke-width:0.592251" />
  <g
     id="g1"
     transform="matrix(0.23357824,0,0,0.21581575,48.408117,50.529354)">
    <path
       d="M 463.996,126.864 340.192,3.061 C 338.231,1.101 335.574,0 332.803,0 H 95.726 C 67.724,0 44.944,22.782 44.944,50.784 v 410.434 c 0,28.001 22.781,50.783 50.783,50.783 h 320.547 c 28.002,0 50.783,-22.781 50.783,-50.783 V 134.253 c -0.001,-2.771 -1.102,-5.429 -3.061,-7.389 z M 343.255,35.679 431.382,123.805 H 373.14 c -7.984,0 -15.49,-3.109 -21.134,-8.753 -5.643,-5.643 -8.752,-13.148 -8.751,-21.131 z m 102.903,425.538 c 0,16.479 -13.406,29.885 -29.884,29.885 H 95.726 c -16.479,0 -29.885,-13.406 -29.885,-29.885 V 50.784 C 65.842,34.305 79.248,20.898 95.726,20.898 h 226.631 v 73.021 c -0.002,13.565 5.28,26.318 14.871,35.909 9.592,9.592 22.345,14.874 35.911,14.874 h 73.018 v 316.515 z"
       style="fill:#3e8ebc;stroke:#052744;stroke-width:0.3;stroke-linecap:round;stroke-linejoin:round"
       id="path1" />
    <path
       d="m 275.092,351.492 h -4.678 c -5.77,0 -10.449,4.678 -10.449,10.449 0,5.771 4.679,10.449 10.449,10.449 h 4.678 c 5.77,0 10.449,-4.678 10.449,-10.449 0,-5.771 -4.679,-10.449 -10.449,-10.449 z"
       style="fill:#3e8ebc;stroke:#052744;stroke-width:0.3;stroke-linecap:round;stroke-linejoin:round"
       id="path2" />
    <path
       d="M 236.61,351.492 H 135.118 c -5.77,0 -10.449,4.678 -10.449,10.449 0,5.771 4.679,10.449 10.449,10.449 H 236.61 c 5.77,0 10.449,-4.678 10.449,-10.449 0,-5.771 -4.678,-10.449 -10.449,-10.449 z"
       style="fill:#3e8ebc;stroke:#052744;stroke-width:0.3;stroke-linecap:round;stroke-linejoin:round"
       id="path3" />
    <path
       d="M 376.882,303.747 H 135.119 c -5.77,0 -10.449,4.678 -10.449,10.449 0,5.771 4.679,10.449 10.449,10.449 h 241.763 c 5.77,0 10.449,-4.678 10.449,-10.449 0,-5.771 -4.679,-10.449 -10.449,-10.449 z"
       style="fill:#3e8ebc;stroke:#052744;stroke-width:0.3;stroke-linecap:round;stroke-linejoin:round"
       id="path4" />
    <path
       d="M 376.882,256 H 135.119 c -5.77,0 -10.449,4.678 -10.449,10.449 0,5.771 4.679,10.449 10.449,10.449 h 241.763 c 5.77,0 10.449,-4.678 10.449,-10.449 0,-5.771 -4.679,-10.449 -10.449,-10.449 z"
       style="fill:#3e8ebc;stroke:#052744;stroke-width:0.3;stroke-linecap:round;stroke-linejoin:round"
       id="path5" />
    <path
       d="M 376.882,208.255 H 135.119 c -5.77,0 -10.449,4.678 -10.449,10.449 0,5.771 4.679,10.449 10.449,10.449 h 241.763 c 5.77,0 10.449,-4.678 10.449,-10.449 0,-5.771 -4.679,-10.449 -10.449,-10.449 z"
       style="fill:#3e8ebc;stroke:#052744;stroke-width:0.3;stroke-linecap:round;stroke-linejoin:round"
       id="path6" />
  </g>
  <text
     xml:space="preserve"
     style="font-style:normal;font-variant:normal;font-weight:normal;font-stretch:normal;font-size:30px;line-height:0%;font-family:'\'Liberation', Arial, 'sans-serif\'';-inkscape-font-specification:'\'Liberation, Arial, sans-serif\', Normal';font-variant-ligatures:normal;font-variant-caps:normal;font-variant-numeric:normal;font-variant-east-asian:normal;text-align:start;letter-spacing:0;word-spacing:0;writing-mode:lr-tb;text-anchor:start;fill:#052744;fill-opacity:1;stroke:none;stroke-width:1"
     x="11.2174"
     y="34.975479"
     id="text1">  <tspan
   x="11.2174"
   y="34.975479"
   style="font-style:normal;font-variant:normal;font-weight:normal;font-stretch:normal;font-size:30px;line-height:0%;font-family:'\'Liberation', Arial, 'sans-serif\'';font-variant-ligatures:normal;font-variant-caps:normal;font-variant-numeric:normal;font-variant-east-asian:normal;text-align:start;letter-spacing:0;word-spacing:0;writing-mode:lr-tb;text-anchor:start;fill:#052744;fill-opacity:1;stroke:none;stroke-width:1"
   id="tspan2">Documentation</tspan></text>
</svg>
